# xmcd CD database file
#
# Track frame offsets:
#	150
#	21946
#	47313
#	75023
#
# Disc length: 1217 seconds
#
# Revision: 0
# Processed by: cddbd v1.5.2PL0 Copyright (c) Steve Scherf et al.
# Submitted via: CDex 1.70beta2
#
DISCID=1904bf04
DTITLE=Batazo - Me Anda Buscando El Son
DYEAR=2006
DGENRE=Salsa
TTITLE0=Me Anda Buscando El Son
TTITLE1=Trobador, Bardo Sonero
TTITLE2=No Vengo A Hablar
TTITLE3=Mas Sabrosa Que Un Helado
EXTD=YEAR: 2006
EXTT0=
EXTT1=
EXTT2=
EXTT3=
PLAYORDER=
